<svg version="1.2" baseProfile="tiny-ps" xmlns="http://www.w3.org/2000/svg" viewBox="0 0 23 25" width="23" height="25">
	<title>download-svg</title>
	<style>
		tspan { white-space:pre }
		.shp0 { fill: #ffffff } 
	</style>
	<g id="Group_483">
		<path id="Path_1383" class="shp0" d="M17.82 11.24C17.82 11.42 17.56 11.42 17.47 11.42C16.05 11.87 15.26 13.47 15.7 14.9C15.79 15.17 15.96 15.53 16.14 15.71C16.32 15.88 16.32 16.06 16.14 16.24C14.73 17.58 13.4 18.92 11.98 20.26C11.54 20.62 11.28 20.71 10.92 20.26C9.51 18.92 8.18 17.58 6.76 16.15C6.59 15.97 6.59 15.88 6.76 15.71C7.74 14.55 7.56 12.85 6.5 11.87C6.23 11.6 5.88 11.42 5.53 11.33C5.17 11.24 5.26 11.06 5.35 10.88C6.15 9.63 7.65 9.1 8.98 9.63C9.77 9.9 10.39 10.44 10.83 11.15C11.28 11.87 11.63 11.87 12.16 11.15C13.13 9.55 15.08 9.01 16.67 9.9C17.11 10.17 17.47 10.53 17.65 10.97C17.73 11.06 17.82 11.15 17.82 11.24Z" />
		<path id="Path_1384" fill-rule="evenodd" class="shp0" d="M10.83 9.37C8.18 8.03 7.12 7.94 5.17 9.28C4.29 7.58 4.64 4.55 6.68 2.58C9.06 0.35 12.69 0.08 15.43 1.96C17.73 3.56 18.71 6.6 17.73 9.28C15.43 8.03 14.2 8.03 12.07 9.46C11.98 9.19 11.98 8.83 11.98 8.56C11.98 8.38 12.16 8.38 12.25 8.38C12.6 8.3 12.78 8.12 12.78 7.76C12.78 7.49 12.51 7.22 12.25 7.22C11.72 7.22 11.1 7.22 10.57 7.22C10.21 7.22 9.95 7.4 9.86 7.76C9.86 8.03 10.04 8.3 10.3 8.38L10.39 8.38C10.66 8.38 10.66 8.47 10.66 8.74C10.92 8.92 10.92 9.19 10.83 9.37ZM8.18 5.97C8.18 6.33 8.53 6.69 8.89 6.69C9.24 6.69 9.6 6.42 9.6 5.97C9.6 5.62 9.33 5.26 8.89 5.26C8.53 5.26 8.18 5.62 8.18 5.97ZM14.81 5.97C14.81 5.62 14.46 5.26 14.11 5.26C13.75 5.26 13.4 5.62 13.4 5.97C13.4 6.42 13.75 6.69 14.11 6.69C14.46 6.69 14.81 6.33 14.81 5.97Z" />
		<path id="Path_1385" class="shp0" d="M1.63 20.8C1.63 19.72 2.08 18.65 2.87 17.94C3.93 16.87 5.7 16.87 6.85 18.03C6.94 18.12 6.94 18.21 7.03 18.21C8.45 19.99 8.27 22.49 6.68 24.1C5.53 25.17 3.67 24.99 2.7 23.83C2.61 23.74 2.52 23.65 2.43 23.47C1.9 22.67 1.63 21.78 1.63 20.8Z" />
		<path id="Path_1386" class="shp0" d="M21.36 20.97C21.36 21.96 21.01 22.94 20.39 23.74C19.41 24.99 17.65 25.17 16.41 24.19C16.23 24.1 16.14 23.92 16.05 23.83C14.55 22.05 14.73 19.37 16.41 17.85L16.41 17.85C17.65 16.87 19.41 17.05 20.39 18.3C20.48 18.38 20.48 18.38 20.56 18.47C21.1 19.1 21.36 20.08 21.36 20.97Z" />
		<path id="Path_1387" class="shp0" d="M3.85 15.97C3.05 15.97 2.34 15.35 2.25 14.55C2.25 13.56 2.87 12.67 3.85 12.49C4.38 12.31 5 12.4 5.53 12.76C6.23 13.21 6.5 14.19 6.06 14.9L6.06 14.9C5.61 15.62 4.73 16.06 3.85 15.97Z" />
		<path id="Path_1388" class="shp0" d="M9.15 20.17C9.51 20.53 9.77 20.8 10.04 20.97C11.1 22.05 12.07 22.05 13.13 20.97C13.4 20.71 13.66 20.53 13.93 20.17C13.84 21.06 13.93 21.96 14.28 22.85C14.37 23.03 14.28 23.12 14.11 23.12C12.43 23.56 10.75 23.56 9.06 23.12C8.89 23.03 8.8 23.03 8.89 22.76C9.15 22.05 9.24 21.15 9.15 20.17Z" />
		<path id="Path_1389" class="shp0" d="M20.74 14.37C20.65 15.35 19.86 16.06 18.88 16.06C18.71 16.06 18.53 16.06 18.35 15.97C18 15.88 17.65 15.71 17.38 15.53C16.85 15.08 16.58 14.37 16.76 13.74C16.94 13.12 17.47 12.67 18.09 12.58C19.24 12.31 20.3 13.03 20.56 14.19C20.74 14.19 20.74 14.28 20.74 14.37Z" />
		<path id="Path_1390" class="shp0" d="M18 0.71C18.97 0.71 19.77 1.33 20.12 2.22C20.48 3.12 20.21 4.1 19.5 4.72C19.24 4.99 19.06 5.08 18.97 4.63C18.53 3.38 17.82 2.31 16.85 1.51C16.5 1.24 16.58 1.15 16.94 0.97C17.2 0.8 17.56 0.71 18 0.71Z" />
		<path id="Path_1391" class="shp0" d="M2.78 3.21C2.7 1.87 3.67 0.8 5 0.71C5.44 0.71 5.79 0.8 6.15 0.97C6.41 1.15 6.59 1.24 6.23 1.51C5.17 2.4 4.46 3.47 4.02 4.81C3.93 5.17 3.76 5.08 3.58 4.9C3.14 4.46 2.78 3.83 2.78 3.21Z" />
	</g>
</svg>