<svg xmlns="http://www.w3.org/2000/svg" width="25.186" height="25.391" viewBox="0 0 25.186 25.391">
  <g id="Group_474" data-name="Group 474" transform="translate(-1704.288 -878.287) rotate(9)">
    <path id="Path_1310" data-name="Path 1310" d="M1824.953,617.091c-.266-1.648-.524-3.3-.8-4.945-.059-.352.023-.505.395-.56.894-.131.892-.147.748-1.044s-.275-1.764-.43-2.642c-.058-.33.014-.486.375-.539.893-.133.906-.152.754-1.028-.063-.361.035-.5.4-.552.878-.128.894-.147.737-1-.072-.389.047-.525.422-.57.632-.078,1.258-.2,1.889-.3.238-.034.325-.132.286-.382-.049-.311-.24-.668-.083-.929.168-.276.583-.181.889-.246.241-.05.329-.165.275-.4-.006-.025-.008-.05-.011-.075-.13-.946-.13-.946.831-1.1.907-.146,1.815-.277,2.717-.444.368-.067.5.054.548.408.129.867.145.876.985.742.328-.053.484.014.537.375.131.906.148.9,1.064.755.478-.076.957-.146,1.434-.232.258-.047.37.046.415.3.056.309-.024.716.22.9s.61-.022.919-.068c.285-.043.384.064.435.327.059.307-.03.714.232.892.241.164.591-.022.887-.075s.407.082.45.355c.164,1.057.348,2.113.5,3.172.049.33.176.42.505.365.93-.154.931-.141,1.083.8q.756,4.7,1.511,9.4c.087.538.086.542-.465.629-1.077.169-.9.232-1.047-.753-.056-.372-.2-.453-.553-.391-1.014.177-.869.245-1.016-.743-.056-.372-.2-.455-.553-.388-.884.171-.778.041-.65.888.089.592.092.591-.519.691-.853.14-.745.052-.619.873.091.6.1.6-.5.7-.578.094-1.16.174-1.735.284-.321.06-.468-.027-.511-.365-.083-.643-.209-1.282-.3-1.926-.036-.261-.146-.343-.407-.3q-1.622.274-3.248.521c-.284.042-.355.165-.3.438.114.626.193,1.259.313,1.886.06.318-.015.473-.354.518-.643.087-1.286.194-1.926.309-.3.053-.438-.024-.492-.344-.151-.914-.164-.919-1.108-.793-.284.039-.447-.026-.461-.332,0-.039-.013-.075-.018-.114-.154-.922-.153-.916-1.088-.691-.2.049-.282.14-.244.346.042.225.062.455.111.679.062.279-.052.4-.322.436-.228.027-.453.076-.68.109a.254.254,0,0,0-.245.345c.047.25.076.5.122.754.038.208-.052.3-.246.353-1.111.309-1.152.286-1.332-.831Zm10.208-1.586q-2.661.428-5.323.857c-.761.124-.728.019-.6.823.088.544.089.546.631.459q5.323-.854,10.646-1.712c.889-.144.807-.023.683-.941-.047-.348-.18-.437-.527-.378C1838.838,614.922,1837,615.21,1835.161,615.505Zm-4.3-4.866c-.052-.326-.112-.653-.155-.981-.029-.217-.113-.318-.35-.277q-1,.173-2,.322c-.228.034-.3.146-.262.367q.164.98.315,1.962c.033.215.125.317.358.278q1-.169,2-.322c.23-.034.3-.147.256-.369C1830.963,611.295,1830.917,610.966,1830.864,610.639Zm7.869-2.6c-.314.05-.628.111-.943.148-.251.03-.358.124-.308.4.118.639.217,1.281.31,1.924.034.235.124.338.376.293.652-.114,1.307-.217,1.963-.317.214-.033.319-.123.28-.356q-.168-1-.321-2c-.035-.233-.16-.291-.376-.251C1839.389,607.938,1839.061,607.983,1838.733,608.036Z" fill="#fff"/>
  </g>
</svg>
