<svg xmlns="http://www.w3.org/2000/svg" width="252.548" height="270.628" viewBox="0 0 252.548 270.628">
  <g id="Group_486" data-name="Group 486" transform="translate(-53.623 -39)" opacity="0.03">
    <path id="Path_1404" data-name="Path 1404" d="M97.3,133.269l2.839,26.862s-17.464,9.213-19.414,8.239-19.5-17.55-17.55-20.475,13.412,2.844,18.406,4.347Z" transform="translate(2.078 20.84)" fill="#524eb7"/>
    <path id="Path_1405" data-name="Path 1405" d="M243.228,85.36s-9.75,10.815,0,15.646,25.349,4.829,26.325,18.48-5.85,30.225-24.376,33.151-26.325,5.85-26.325,5.85,3.9-7.8,9.75-9.75-9.75-9.75-8.775-19.5,7.8-16.575,7.8-16.575-1.463,19.012,13.162,13.162-5.85-12.675-6.825-20.475S234.94,89.749,243.228,85.36Z" transform="translate(36.527 10.249)" fill="#524eb7"/>
    <path id="Path_1406" data-name="Path 1406" d="M82.155,168.4s-11.831,13.122,0,18.982,30.758,5.861,31.941,22.423-2.042,22.945-11.791,34.645c-5.755,6.906,12.675,12.676,12.675,12.676S81.829,262.977,64.409,245.3c-5.251-5.329-11.83-11.83-10.647-23.659s9.463-20.111,9.463-20.111S61.451,224.6,79.2,217.5s-7.1-15.379-8.281-24.844S72.1,173.726,82.155,168.4Z" transform="translate(0 28.607)" fill="#524eb7"/>
    <path id="Path_1407" data-name="Path 1407" d="M94.952,102.424s-15.6-15.6-10.726-19.5S104.7,72.2,105.677,64.4,107.627,42.948,93,39.048a24.134,24.134,0,0,1,3.9,5.85c3.7,7.4-2.926,10.726-8.776,11.7S66.677,64.4,69.6,75.123,87.152,98.524,94.952,102.424Z" transform="translate(3.452 0.011)" fill="#524eb7"/>
    <path id="Path_1408" data-name="Path 1408" d="M266.082,171.659c-3.9-.974-14.625,6.825-26.54,7.219s-27.908-31.594-27.908-31.594l9.6-16.575c18.525-39-5.85-100.426-69.225-90.675s-58.5,107.25-58.5,107.25,2.437,37.538,12.188,71.662,35.1,66.3,35.1,66.3,33.15,39.975,64.35,17.55,31.2-61.425,27.3-60.45-10.725,19.5-22.425,32.175-26.325,8.775-25.349,13.65S196.37,295,196.37,295c-15.6,2.926-18.526-10.725-18.526-10.725-19.5-59.476,7.8-104.326,11.7-108.226s58.013,19.988,61.913,19.988S269.982,172.634,266.082,171.659ZM109.106,91.709c1.95-8.775,19.5-14.625,19.5-14.625,3.9,0-.974,5.85-.974,5.85S107.156,100.485,109.106,91.709Zm54.6,27.3c0,4.875-16.575,20.475-35.1,16.575s-17.55-20.475-18.525-26.325,12.675-9.75,12.675-9.75c18.525-2.924,19.5,5.85,19.5,8.776s2.924,3.9,12.368-.358S163.706,114.135,163.706,119.009Zm20.476-17.55c-8.776-4.875-40.951-25.349-25.351-23.4,0,0,33.15,13.649,36.075,18.525S192.957,106.335,184.182,101.459Z" transform="translate(8.798 0)" fill="#524eb7"/>
  </g>
</svg>
