<svg version="1.2" baseProfile="tiny-ps" xmlns="http://www.w3.org/2000/svg" viewBox="0 0 26 25" width="26" height="25">
	<title>hello-kimmy-svg</title>
	<style>
		tspan { white-space:pre }
		.shp0 { fill: #ffffff } 
	</style>
	<path id="Path_287" class="shp0" d="M24.41 10.32C24.41 10.75 24.37 11.19 24.3 11.62C24.23 12.05 24.12 12.47 23.99 12.88C23.85 13.3 23.68 13.7 23.47 14.08C23.27 14.47 23.04 14.84 22.77 15.19C22.34 15.83 21.87 16.45 21.36 17.05C20.86 17.64 20.32 18.21 19.75 18.74C19.18 19.27 18.59 19.78 17.96 20.25C17.34 20.72 16.69 21.15 16.02 21.55C15.65 21.79 15.25 21.98 14.83 22.12C14.41 22.25 13.97 22.32 13.53 22.33C13.09 22.34 12.65 22.29 12.23 22.17C11.8 22.06 11.39 21.88 11.01 21.66C10.62 21.42 10.23 21.17 9.84 20.9C9.46 20.64 9.09 20.36 8.73 20.07C8.37 19.78 8.02 19.47 7.68 19.15C7.35 18.84 7.02 18.51 6.71 18.17C6.41 17.87 6.13 17.56 5.85 17.24C5.58 16.92 5.31 16.59 5.06 16.25C4.81 15.91 4.57 15.57 4.34 15.21C4.11 14.86 3.9 14.5 3.7 14.13C3.36 13.57 3.1 12.96 2.92 12.33C2.73 11.7 2.63 11.05 2.62 10.4C2.61 9.74 2.68 9.09 2.83 8.45C2.98 7.82 3.22 7.2 3.53 6.63C3.88 5.96 4.36 5.37 4.95 4.9C5.54 4.43 6.22 4.09 6.95 3.9C7.67 3.7 8.44 3.66 9.18 3.77C9.93 3.88 10.64 4.15 11.28 4.55C11.46 4.65 11.63 4.76 11.79 4.88C11.96 5 12.12 5.12 12.28 5.25C12.43 5.38 12.58 5.52 12.73 5.66C12.87 5.8 13.01 5.95 13.14 6.1C13.57 6.61 13.6 6.62 14.06 6.1C14.25 5.88 14.45 5.68 14.67 5.48C14.89 5.29 15.12 5.11 15.36 4.95C15.61 4.79 15.86 4.65 16.13 4.52C16.39 4.39 16.66 4.29 16.94 4.2C17.54 3.98 18.18 3.87 18.82 3.88C19.46 3.89 20.09 4.01 20.69 4.24C21.29 4.46 21.84 4.8 22.33 5.22C22.81 5.64 23.21 6.14 23.51 6.7C23.67 6.97 23.81 7.26 23.93 7.55C24.05 7.84 24.14 8.14 24.22 8.44C24.29 8.75 24.35 9.06 24.38 9.37C24.41 9.69 24.42 10 24.41 10.32L24.41 10.32Z" />
</svg>