<svg xmlns="http://www.w3.org/2000/svg" width="26.073" height="26.145" viewBox="0 0 26.073 26.145">
  <g id="Group_476" data-name="Group 476" transform="translate(-2760.706 -714.432)">
    <path id="Path_1313" data-name="Path 1313" d="M2775.383,733.353c-2.458,0-4.917-.01-7.375.009-.455,0-.64-.14-.716-.6q-1.239-7.421-2.513-14.836a1.5,1.5,0,0,0-1.666-1.441c-.349-.007-.7.007-1.046-.007a2.71,2.71,0,0,1-.619-.082,1,1,0,0,1-.74-1.013.906.906,0,0,1,.859-.9,8.588,8.588,0,0,1,2.294.039,3.466,3.466,0,0,1,2.865,3.066c.134.745.134.745.884.745h18.2c.174,0,.349.008.523,0,.408-.018.5.15.416.547-.389,1.786-.75,3.578-1.123,5.368-.114.545-.226,1.091-.347,1.635a4.3,4.3,0,0,1-4.573,3.671c-3.766.009-7.532,0-11.3,0-.681,0-.7.006-.562.664.291,1.409-.031,1.165,1.41,1.169,4.132.012,8.264,0,12.4,0a1.141,1.141,0,0,1,.968.282.98.98,0,0,1,.218,1.023.909.909,0,0,1-.871.639c-.645.011-1.29.009-1.935.009Z" fill="#fff"/>
    <path id="Path_1314" data-name="Path 1314" d="M2919.785,910.091a3.114,3.114,0,0,1-3.148-3.146,3.156,3.156,0,0,1,3.119-3.189,3.221,3.221,0,0,1,3.208,3.185A3.184,3.184,0,0,1,2919.785,910.091Z" transform="translate(-139.619 -169.519)" fill="#fff"/>
    <path id="Path_1315" data-name="Path 1315" d="M2818.8,910.162a3.094,3.094,0,0,1-3.159-3.125,3.165,3.165,0,0,1,3.162-3.206,3.242,3.242,0,0,1,3.167,3.182A3.165,3.165,0,0,1,2818.8,910.162Z" transform="translate(-49.186 -169.586)" fill="#fff"/>
  </g>
</svg>
