<svg xmlns="http://www.w3.org/2000/svg" width="10.198" height="10.213" viewBox="0 0 10.198 10.213">
  <path id="Path_1417" data-name="Path 1417" d="M71.244,95.22a.575.575,0,0,1,.716.344,5.632,5.632,0,0,0,.985,1.362,2.949,2.949,0,0,0,2.868.876.588.588,0,0,1,.792.39.576.576,0,0,1-.425.771,3.147,3.147,0,0,0-2.108,3.163c-.016.27.007.542.013.814a.581.581,0,0,1-.453.653.575.575,0,0,1-.716-.345,5.4,5.4,0,0,0-.948-1.317,2.9,2.9,0,0,0-2.848-.92c-.377.086-.711.04-.85-.385a.554.554,0,0,1,.378-.744c1.832-.656,2.211-2.126,2.159-3.831C70.794,95.668,70.81,95.346,71.244,95.22Zm1.734,5.821a1.043,1.043,0,0,0,.048-.134,5.061,5.061,0,0,1,.8-1.721c.164-.238-.023-.3-.187-.367a4.611,4.611,0,0,1-1.406-.9c-.23-.227-.338-.194-.414.114a4.534,4.534,0,0,1-.714,1.51c-.164.234-.153.35.13.465a4.363,4.363,0,0,1,1.454.93A.261.261,0,0,0,72.977,101.04Z" transform="translate(-41.137 -108.87) rotate(14)" fill="#f2827f"/>
</svg>
