<svg xmlns="http://www.w3.org/2000/svg" width="25.651" height="30.574" viewBox="0 0 25.651 30.574">
  <g id="Group_475" data-name="Group 475" transform="translate(-2068.522 -772.749) rotate(9)">
    <path id="Path_1311" data-name="Path 1311" d="M2178.685,457.644c-.123-.769-.258-1.536-.366-2.308-.052-.371-.2-.5-.586-.435s-.52.228-.413.592c.141.483-.043.685-.539.743-.824.1-1.645.237-2.459.394-.426.082-.629-.046-.638-.473-.01-.454-.217-.627-.663-.488s-.7,0-.727-.494c-.021-.432-.241-.58-.653-.466-.43.119-.633-.037-.691-.491q-.156-1.236-.394-2.46c-.086-.439.023-.671.488-.679s.585-.235.491-.676c-.072-.338-.2-.506-.558-.406-.483.135-.774.014-.787-.539-.008-.4-.221-.477-.588-.421-.678.1-.7.075-.807-.585-.194-1.178-.37-2.359-.576-3.535-.074-.42,0-.689.48-.7.5-.012.686-.235.536-.726-.122-.4.057-.559.45-.612.824-.112,1.639-.274,2.463-.385.385-.052.484-.214.423-.588-.113-.689-.1-.712.6-.821.381-.06.525-.221.412-.589-.145-.479.031-.675.528-.746,1.559-.224,3.112-.48,4.664-.747.439-.076.715-.018.721.494.005.436.226.585.638.461.506-.154.76.034.773.561.011.432.219.55.641.466.8-.155,1.608-.251,2.406-.4.4-.074.608.035.618.446.011.518.27.656.741.517.41-.123.6.046.663.466q.272,1.849.593,3.691c.078.44-.06.671-.507.691-.47.022-.656.235-.513.7.132.435-.091.611-.492.631s-.564.2-.495.637.289.546.675.431c.45-.135.618.057.675.5.106.824.241,1.645.394,2.46.076.405-.012.649-.454.67-.477.022-.641.252-.514.713.1.376-.027.614-.443.623-.507.012-.739.213-.569.745.117.366-.04.532-.416.584-.858.119-1.713.252-2.563.415-.418.079-.631-.038-.66-.468-.025-.389-.157-.586-.621-.51-.5.083-.442.371-.385.715.245,1.5.491,3.006.723,4.51.056.363.161.567.6.5s.52-.28.42-.646c-.128-.472.071-.683.536-.7.405-.014.623-.176.484-.619s.014-.694.5-.7c.442-.007.578-.236.455-.642-.154-.511.049-.734.566-.775.412-.033.819-.138,1.23-.19.334-.041.427-.2.381-.525-.1-.693-.082-.7.608-.809.8-.13,1.608-.244,2.408-.393.379-.07.536.063.592.431q.29,1.9.61,3.794c.057.346-.055.52-.409.565-.463.06-.921.161-1.384.216-.351.042-.509.192-.4.547.156.522.025.835-.574.856-.375.015-.443.248-.382.577.083.442.139.889.214,1.332.056.322-.064.483-.4.525-.446.056-.886.158-1.334.206-.388.041-.54.183-.467.6.123.7.1.708-.605.822-.751.123-1.5.255-2.256.359-.367.05-.506.2-.446.582a.783.783,0,0,1-1.087.78c-.226-.1-.225-.341-.243-.539-.038-.415-.244-.51-.633-.438-.781.146-1.573.243-2.355.391-.43.081-.685-.02-.693-.487-.008-.552-.28-.666-.775-.537-.383.1-.787.119-1.175.2-.348.072-.524-.046-.573-.4-.061-.428-.156-.852-.2-1.282-.045-.4-.238-.555-.625-.445-.5.142-.71-.087-.723-.565-.012-.442-.23-.554-.645-.461-.438.1-.888.142-1.331.221-.285.05-.473-.019-.522-.333q-.317-2-.641-4a.332.332,0,0,1,.311-.438c.957-.151,1.915-.3,2.871-.465.33-.056.414.124.469.4.138.677.146.675.835.566.342-.055.689-.091,1.024-.169.432-.1.678.03.69.491.014.494.233.689.724.535.394-.124.6.038.605.442.011.475.222.659.693.511.447-.139.7.015.719.5.016.386.18.545.6.476.448-.074.453-.323.393-.671C2178.926,459.184,2178.809,458.413,2178.685,457.644Zm-3.711-8.979c.063.393.147.783.184,1.178.037.416.2.611.63.472.541-.177.772.055.794.585.015.341.2.427.526.37.8-.142,1.6-.273,2.409-.386.348-.049.511-.2.411-.55-.157-.544.075-.773.605-.783.394-.007.486-.209.416-.58-.147-.783-.278-1.568-.379-2.358-.052-.416-.209-.6-.635-.471-.458.138-.739.011-.762-.51-.016-.4-.221-.529-.618-.454-.783.146-1.57.265-2.358.382-.318.048-.484.191-.387.52.164.556-.047.816-.613.827-.39.007-.5.207-.417.58S2174.911,448.27,2174.974,448.664Zm3.624,15.609c.206-.033.409-.08.615-.1.376-.027.506-.2.438-.578-.062-.353-.15-.614-.586-.487-.462.135-.737,0-.754-.516-.014-.405-.22-.554-.612-.447-.44.119-.709-.008-.714-.506s-.232-.649-.694-.506-.7-.023-.715-.5c-.016-.387-.192-.58-.6-.464-.48.136-.728-.038-.734-.541-.005-.479-.25-.578-.678-.469a9.64,9.64,0,0,1-.971.161c-.648.094-.823.267-.91-.6-.041-.413-.3-.387-.6-.337s-.556.086-.473.5c.091.457.162.919.222,1.382.041.318.2.4.5.344.459-.086.925-.135,1.382-.229.381-.078.615.016.627.436.014.5.247.671.733.536.354-.1.551.038.592.426.044.412.158.817.186,1.229.034.52.277.636.749.522.4-.1.818-.131,1.227-.2.33-.059.531.029.567.4.089.866.206.7.893.6C2178.394,464.307,2178.5,464.29,2178.6,464.273Zm9.6-7.5a5.047,5.047,0,0,1-.087-.563c-.021-.449-.246-.531-.653-.458-.371.065-.532.21-.421.585.136.46.012.719-.511.754-.394.026-.783.141-1.178.176-.412.038-.611.2-.472.63.162.506-.03.751-.551.775-.4.016-.5.248-.4.6.141.488-.053.717-.546.734-.4.014-.63.175-.484.616.181.546-.062.764-.585.8-.252.016-.464.125-.374.426.181.612-.019.9-.666.929-.4.016-.321.326-.28.584s.07.535.46.464a9.9,9.9,0,0,1,1.177-.181c.52-.031.723-.237.557-.755-.135-.419.054-.6.468-.652.43-.049.852-.153,1.282-.2.412-.042.522-.237.435-.627s-.1-.79-.2-1.174c-.121-.486.036-.719.535-.749.284-.018.486-.1.445-.479-.083-.758-.064-.76.7-.884.137-.022.273-.042.409-.065C2188.544,457.822,2188.383,458.046,2188.2,456.77Z" transform="translate(0)" fill="#fff"/>
    <path id="Path_1312" data-name="Path 1312" d="M2176.051,448.031c-.477.185-.731.018-.758-.488-.021-.4-.217-.563-.612-.447-.5.149-.663-.1-.734-.561-.068-.447.012-.711.51-.721.445-.01.565-.25.453-.649-.133-.48.061-.682.546-.76s.785,0,.8.547c.015.479.273.585.688.462.468-.139.6.106.66.521.056.4.1.735-.449.762-.375.019-.653.138-.521.6C2176.783,447.817,2176.576,448.057,2176.051,448.031Z" transform="translate(2.085 1.967)" fill="#fff"/>
  </g>
</svg>
