<svg xmlns="http://www.w3.org/2000/svg" width="30.64" height="30.258" viewBox="0 0 30.64 30.258">
  <g id="Group_485" data-name="Group 485" transform="matrix(0.914, 0.407, -0.407, 0.914, 35.107, -124.6)">
    <path id="Path_1399" data-name="Path 1399" d="M27.2,142.454a8.053,8.053,0,0,1,8.869,1.217c1,.936,1.013,1.157.232,2.3a8.216,8.216,0,0,1-8.874,3,7,7,0,0,1-2.3-1.086c-.477-.346-.484-.635-.02-.985q.577-.435,1.187-.822c.314-.2.208-.3-.058-.392-.438-.16-.877-.316-1.311-.487-.527-.209-.593-.478-.238-.911A8.005,8.005,0,0,1,27.2,142.454Z" transform="translate(0 -8)" fill="#fff"/>
    <path id="Path_1400" data-name="Path 1400" d="M36.84,129.871a8.085,8.085,0,0,1-.493-5.731c.178-.6.434-.688.937-.306q.558.423,1.1.86c.262.21.356.132.36-.181.006-.482.016-.965.045-1.447.032-.534.27-.683.77-.479a7.528,7.528,0,0,1,3.462,2.9,7.936,7.936,0,0,1,1.115,6.814,6.511,6.511,0,0,1-.776,1.654.682.682,0,0,1-.765.349,7.428,7.428,0,0,1-5.09-3.261A7,7,0,0,1,36.84,129.871Z" transform="translate(-4.828 0)" fill="#fff"/>
    <path id="Path_1401" data-name="Path 1401" d="M53.855,150.432a6.755,6.755,0,0,1-.6-2.419.663.663,0,0,1,.37-.713,6.851,6.851,0,0,1,4.43-.773,8.2,8.2,0,0,1,6.516,4.846c.034.073.064.147.093.222.3.782.151.986-.686.972-.4-.007-.8-.013-1.206-.012-.107,0-.246-.041-.3.085s.052.206.114.3c.224.333.442.67.668,1,.446.652.341.927-.443,1.066a8.125,8.125,0,0,1-4.9-.608A8.489,8.489,0,0,1,53.855,150.432Z" transform="translate(-12.022 -9.997)" fill="#fff"/>
    <path id="Path_1402" data-name="Path 1402" d="M57.833,136.425a7.529,7.529,0,0,1-4.849.569.748.748,0,0,1-.665-.694,8.163,8.163,0,0,1,7.626-9.1c.651-.023.822.2.612.82-.145.427-.3.85-.453,1.274-.1.282-.065.4.273.291.49-.153.988-.287,1.489-.4.456-.1.618.026.585.479a8,8,0,0,1-3.954,6.385C58.253,136.2,57.994,136.333,57.833,136.425Z" transform="translate(-11.587 -1.961)" fill="#fff"/>
    <path id="Path_1403" data-name="Path 1403" d="M43.324,160.5c-.407.5-.763.948-1.128,1.388-.416.5-.7.462-1.014-.1a8.293,8.293,0,0,1,1.278-9.7,6.7,6.7,0,0,1,2.429-1.613.722.722,0,0,1,.862.2,7.245,7.245,0,0,1,2.111,6.069,8.03,8.03,0,0,1-2.7,5.49c-.1.087-.19.174-.292.252-.583.446-.841.364-1.062-.339-.082-.26-.155-.524-.231-.786S43.424,160.844,43.324,160.5Z" transform="translate(-6.552 -11.655)" fill="#fff"/>
  </g>
</svg>
