<svg xmlns="http://www.w3.org/2000/svg" width="203.476" height="229.718" viewBox="0 0 203.476 229.718">
  <g id="Group_534" data-name="Group 534" transform="translate(-1428.066 -396.229)">
    <path id="Path_1449" data-name="Path 1449" d="M2518.722,321.8a167.334,167.334,0,0,0,20.632,6.508c36.268,9.11,63.378,39.219,70.252,75.972,2.052,10.953,4.625,21.2,7.855,29.384h0c3.227-8.185,5.787-18.431,7.839-29.384,6.891-36.753,33.993-66.861,70.265-75.972A167.334,167.334,0,0,0,2716.2,321.8s-6.432-1.466-15.88-3.483a96.1,96.1,0,0,1-74.608-76.8c-2.11-11.778-4.815-22.849-8.248-31.575h0c-3.437,8.707-6.13,19.761-8.244,31.511a96.079,96.079,0,0,1-74.31,76.733C2525.279,320.272,2518.722,321.8,2518.722,321.8Z" transform="translate(-1087.657 189.28)" fill="none" stroke="#fff" stroke-linecap="round" stroke-linejoin="round" stroke-width="6" opacity="0.1"/>
    <path id="Path_1450" data-name="Path 1450" d="M2518.722,239.948a44.872,44.872,0,0,0,5.533,1.745,25.752,25.752,0,0,1,18.841,20.375,44.557,44.557,0,0,0,2.107,7.881h0a44.658,44.658,0,0,0,2.1-7.881,25.761,25.761,0,0,1,18.845-20.375,44.872,44.872,0,0,0,5.533-1.745s-1.725-.393-4.259-.934a25.774,25.774,0,0,1-20.01-20.6,46.33,46.33,0,0,0-2.212-8.468h0a46.187,46.187,0,0,0-2.211,8.451,25.768,25.768,0,0,1-19.93,20.579C2520.481,239.537,2518.722,239.948,2518.722,239.948Z" transform="translate(-1081.138 189.28)" fill="none" stroke="#fff" stroke-linecap="round" stroke-linejoin="round" stroke-width="5" opacity="0.1"/>
  </g>
</svg>
